<mxfile host="app.diagrams.net" modified="2024-07-05T08:09:20.255Z" agent="Mozilla/5.0 (Macintosh; Intel Mac OS X 10_15_7) AppleWebKit/537.36 (KHTML, like Gecko) Chrome/126.0.0.0 Safari/537.36" version="24.6.4" etag="vJqHdPwppVkq3V5IlZur" type="github">
  <diagram name="Page-1" id="IYUI_bFyWa0xsKXqie7K">
    <mxGraphModel>
      <root>
        <mxCell id="0" />
        <mxCell id="1" parent="0" />
      </root>
    </mxGraphModel>
  </diagram>
</mxfile>
